<svg height="512pt" viewBox="-35 0 512 512.00099" width="512pt" xmlns="http://www.w3.org/2000/svg"><path d="m47.515625 512c-22.476563 0-41.410156-15.15625-47.136719-35.808594-1.828125-6.59375 3.214844-13.101562 10.058594-13.101562h324.171875c5.007813 0 9.359375 3.558594 10.222656 8.492187 4.019531 22.964844 24.0625 40.417969 48.175781 40.417969zm0 0" fill="#7ae57d"/><path d="m334.609375 463.089844h-5.078125c0 9.1875 2.535156 18.742187 6.941406 27.355468 2.125 4.144532-.902344 9.066407-5.558594 9.066407h-316.035156c8.65625 7.761719 20.09375 12.488281 32.636719 12.488281h345.496094c-24.117188 0-44.15625-17.453125-48.175781-40.417969-.867188-4.933593-5.21875-8.492187-10.226563-8.492187zm0 0" fill="#66d166"/><path d="m47.515625 463.089844v-452.683594c0-5.746094 4.65625-10.40625 10.40625-10.40625h373.59375c5.746094 0 10.40625 4.660156 10.40625 10.40625v451.878906c0 26.820313-21.257813 49.261719-48.074219 49.707032-24.421875.410156-44.832031-17.082032-48.980468-40.214844-.894532-4.992188-5.125-8.6875-10.195313-8.6875zm0 0" fill="#ddf5ff"/><path d="m424.230469 0v463.089844c0 23.988281-17.277344 43.933594-40.066407 48.097656 2.871094.523438 5.824219.8125 8.847657.8125 27.011719 0 48.910156-21.898438 48.910156-48.910156v-452.683594c0-5.746094-4.660156-10.40625-10.40625-10.40625zm0 0" fill="#c1e9f4"/><path d="m410.699219 90.535156c0 32.1875-26.089844 58.277344-58.273438 58.277344-32.1875 0-58.277343-26.089844-58.277343-58.277344 0-32.183594 26.089843-58.273437 58.277343-58.273437 32.183594 0 58.273438 26.089843 58.273438 58.273437zm0 0" fill="#ff6969"/><path d="m352.425781 57.757812c-15.78125 0-28.621093 12.835938-28.621093 28.617188v29.136719c0 4.308593 3.496093 7.804687 7.808593 7.804687 4.308594 0 7.804688-3.492187 7.804688-7.804687v-13.007813h26.015625v13.007813c0 4.308593 3.492187 7.804687 7.804687 7.804687 4.308594 0 7.804688-3.492187 7.804688-7.804687v-29.136719c0-15.78125-12.839844-28.617188-28.617188-28.617188zm-13.007812 29.136719v-.519531c0-7.175781 5.832031-13.007812 13.007812-13.007812 7.171875 0 13.007813 5.832031 13.007813 13.007812v.519531zm0 0" fill="#ea4747"/><g fill="#636363"><path d="m138.050781 55.675781h-58.277343c-4.308594 0-7.804688-3.496093-7.804688-7.804687 0-4.3125 3.496094-7.804688 7.804688-7.804688h58.277343c4.308594 0 7.804688 3.492188 7.804688 7.804688 0 4.308594-3.492188 7.804687-7.804688 7.804687zm0 0"/><path d="m179.675781 88.976562h-99.902343c-4.308594 0-7.804688-3.496093-7.804688-7.804687 0-4.3125 3.496094-7.804687 7.804688-7.804687h99.902343c4.3125 0 7.804688 3.492187 7.804688 7.804687 0 4.308594-3.492188 7.804687-7.804688 7.804687zm0 0"/><path d="m179.675781 121.234375h-99.902343c-4.308594 0-7.804688-3.492187-7.804688-7.804687 0-4.308594 3.496094-7.804688 7.804688-7.804688h99.902343c4.3125 0 7.804688 3.496094 7.804688 7.804688 0 4.3125-3.492188 7.804687-7.804688 7.804687zm0 0"/><path d="m294.148438 241.949219h-214.375c-4.308594 0-7.804688-3.492188-7.804688-7.804688 0-4.308593 3.496094-7.804687 7.804688-7.804687h214.375c4.308593 0 7.804687 3.496094 7.804687 7.804687 0 4.3125-3.496094 7.804688-7.804687 7.804688zm0 0"/><path d="m221.300781 277.332031h-141.527343c-4.308594 0-7.804688-3.492187-7.804688-7.804687 0-4.308594 3.496094-7.804688 7.804688-7.804688h141.527343c4.3125 0 7.804688 3.496094 7.804688 7.804688 0 4.3125-3.492188 7.804687-7.804688 7.804687zm0 0"/></g><path d="m375.320312 277.332031c-.023437 0-.046874 0-.070312 0-2.132812-.019531-4.167969-.910156-5.625-2.464843l-15.613281-16.652344c-2.945313-3.144532-2.789063-8.082032.359375-11.03125 3.140625-2.949219 8.082031-2.789063 11.03125.355468l10.011718 10.683594 28.644532-29.511718c3.003906-3.09375 7.945312-3.167969 11.035156-.164063 3.09375 3 3.167969 7.941406.167969 11.035156l-34.34375 35.382813c-1.46875 1.515625-3.488281 2.367187-5.597657 2.367187zm0 0" fill="#ddf5ff"/><path d="m294.148438 317.917969h-214.375c-4.308594 0-7.804688-3.492188-7.804688-7.804688 0-4.308593 3.496094-7.804687 7.804688-7.804687h214.375c4.308593 0 7.804687 3.496094 7.804687 7.804687 0 4.3125-3.496094 7.804688-7.804687 7.804688zm0 0" fill="#636363"/><path d="m221.300781 353.300781h-141.527343c-4.308594 0-7.804688-3.492187-7.804688-7.804687 0-4.308594 3.496094-7.804688 7.804688-7.804688h141.527343c4.3125 0 7.804688 3.492188 7.804688 7.804688 0 4.308594-3.492188 7.804687-7.804688 7.804687zm0 0" fill="#636363"/><path d="m375.320312 353.300781c-.023437 0-.046874 0-.070312 0-2.132812-.019531-4.167969-.910156-5.625-2.464843l-15.613281-16.652344c-2.945313-3.144532-2.789063-8.082032.359375-11.03125 3.140625-2.949219 8.082031-2.789063 11.03125.355468l10.011718 10.679688 28.644532-29.507812c3.003906-3.09375 7.945312-3.167969 11.035156-.167969 3.09375 3.003906 3.167969 7.945312.167969 11.039062l-34.34375 35.382813c-1.46875 1.511718-3.488281 2.367187-5.597657 2.367187zm0 0" fill="#ddf5ff"/><path d="m294.148438 393.886719h-214.375c-4.308594 0-7.804688-3.496094-7.804688-7.804688 0-4.3125 3.496094-7.804687 7.804688-7.804687h214.375c4.308593 0 7.804687 3.492187 7.804687 7.804687 0 4.308594-3.496094 7.804688-7.804687 7.804688zm0 0" fill="#636363"/><path d="m221.300781 429.269531h-141.527343c-4.308594 0-7.804688-3.496093-7.804688-7.804687 0-4.3125 3.496094-7.808594 7.804688-7.808594h141.527343c4.3125 0 7.804688 3.496094 7.804688 7.808594 0 4.308594-3.492188 7.804687-7.804688 7.804687zm0 0" fill="#636363"/><path d="m375.320312 429.269531c-.023437 0-.046874 0-.070312 0-2.132812-.019531-4.167969-.910156-5.625-2.46875l-15.613281-16.648437c-2.945313-3.144532-2.789063-8.085938.359375-11.03125 3.140625-2.949219 8.082031-2.792969 11.03125.355468l10.011718 10.679688 28.644532-29.511719c3.003906-3.09375 7.945312-3.164062 11.035156-.164062 3.09375 3.003906 3.167969 7.945312.167969 11.039062l-34.34375 35.378907c-1.46875 1.515624-3.488281 2.371093-5.597657 2.371093zm0 0" fill="#ddf5ff"/></svg>