<svg enable-background="new 0 0 32 32" height="512" viewBox="0 0 32 32" width="512" xmlns="http://www.w3.org/2000/svg"><path d="m26 32h-20c-3.314 0-6-2.686-6-6v-20c0-3.314 2.686-6 6-6h20c3.314 0 6 2.686 6 6v20c0 3.314-2.686 6-6 6z" fill="#e3f8fa"/><path d="m22.167 8h-12.334c-1.011 0-1.833.822-1.833 1.833v12.333c0 1.012.822 1.834 1.833 1.834h12.333c1.012 0 1.834-.822 1.834-1.833v-12.334c0-1.011-.822-1.833-1.833-1.833zm-3.711 8.487-4.271 4c-.129.12-.292.18-.456.18-.178 0-.355-.071-.486-.211-.252-.269-.238-.691.031-.942l3.751-3.514-3.751-3.513c-.269-.252-.283-.674-.031-.942.251-.269.673-.282.942-.031l4.271 4c.135.126.211.302.211.487s-.076.36-.211.486z" fill="#26c6da"/></svg>